<?xml version="1.0" encoding="UTF-8" standalone="no" ?>
<!DOCTYPE svg PUBLIC "-//W3C//DTD SVG 1.1//EN" "http://www.w3.org/Graphics/SVG/1.1/DTD/svg11.dtd">
<svg xmlns="http://www.w3.org/2000/svg" xmlns:xlink="http://www.w3.org/1999/xlink" version="1.1" width="640" height="480" viewBox="0 0 640 480" xml:space="preserve">
<desc>Created with Fabric.js 3.6.6</desc>
<defs>
</defs>
<g transform="matrix(2.48 -0.54 0.54 2.48 332.19 266.86)"  >
<path style="stroke: none; stroke-width: 1; stroke-dasharray: none; stroke-linecap: butt; stroke-dashoffset: 0; stroke-linejoin: miter; stroke-miterlimit: 4; fill: rgb(164,58,43); fill-rule: evenodd; opacity: 1;"  transform=" translate(-649.5, -112.79)" d="M 533.271 71.171 c 0.607 -0.543 1.211 -0.72 1.771 -0.946 c 4.284 -1.729 8.574 -3.437 12.862 -5.153 c 6.67 -2.666 13.341 -5.331 20.013 -7.999 c 1.507 -0.599 1.368 -0.519 1.969 0.721 c 3.544 7.325 7.085 14.649 10.626 21.974 c 3.208 6.632 6.413 13.265 9.631 19.892 c 0.167 0.345 0.258 0.768 0.697 0.986 c 0.393 -0.296 0.609 -0.729 0.861 -1.115 c 4.727 -7.154 9.444 -14.312 14.16 -21.47 c 5.642 -8.567 11.273 -17.145 16.918 -25.708 c 4.598 -6.975 9.214 -13.936 13.811 -20.911 c 5.103 -7.74 10.194 -15.485 15.291 -23.228 c 0.182 -0.275 0.373 -0.545 0.57 -0.809 c 0.102 -0.139 0.19 -0.344 0.421 -0.268 c 0.198 0.066 0.227 0.269 0.269 0.446 c 0.546 2.243 1.093 4.485 1.631 6.731 c 3.379 14.041 6.757 28.081 10.133 42.123 c 2.519 10.478 5.03 20.956 7.557 31.431 c 0.218 0.901 0.286 1.795 0.255 2.721 c -0.289 8.571 -0.557 17.143 -0.83 25.716 c -0.005 0.146 -0.015 0.292 -0.018 0.438 c -0.011 0.443 0.197 0.587 0.625 0.483 c 1.067 -0.259 2.14 -0.502 3.21 -0.758 c 15.826 -3.794 31.65 -7.587 47.477 -11.384 c 13.614 -3.263 27.227 -6.534 40.846 -9.793 c 0.553 -0.132 1.104 -0.37 1.7 -0.267 c 0.064 0.505 -0.313 0.696 -0.546 0.948 c -4.709 5.179 -9.43 10.345 -14.148 15.517 c -9.852 10.806 -19.703 21.611 -29.553 32.418 c -1.729 1.897 -3.434 3.814 -5.185 5.687 c -0.498 0.534 -0.57 1.002 -0.295 1.67 c 2.52 6.137 5.015 12.284 7.514 18.427 c 0.746 1.834 1.495 3.665 2.24 5.499 c 3.07 7.576 6.135 15.152 9.206 22.727 c 1.917 4.717 3.841 9.436 5.763 14.155 c 0.731 1.799 1.464 3.598 2.197 5.397 c 0.08 0.204 0.184 0.403 0.232 0.613 c 0.063 0.264 -0.043 0.443 -0.347 0.371 c -0.177 -0.042 -0.348 -0.118 -0.506 -0.207 c -2.779 -1.559 -5.552 -3.122 -8.333 -4.674 c -1.887 -1.052 -3.786 -2.086 -5.674 -3.133 c -2.24 -1.242 -4.476 -2.498 -6.718 -3.741 c -1.887 -1.048 -3.784 -2.083 -5.674 -3.129 c -2.271 -1.261 -4.543 -2.531 -6.815 -3.791 c -1.89 -1.046 -3.788 -2.082 -5.673 -3.131 c -2.243 -1.244 -4.477 -2.5 -6.718 -3.743 c -1.923 -1.066 -3.853 -2.112 -5.773 -3.178 c -2.178 -1.21 -4.348 -2.43 -6.525 -3.637 c -1.985 -1.102 -3.98 -2.185 -5.967 -3.283 c -2.144 -1.19 -4.266 -2.426 -6.435 -3.568 c -2.852 -1.497 -5.523 -3.351 -8.558 -4.485 c -2.4 -0.896 -4.844 -1.675 -7.269 -2.502 c -2.429 -0.824 -4.856 -1.647 -7.282 -2.468 c -2.463 -0.834 -4.925 -1.663 -7.386 -2.499 c -2.357 -0.803 -4.712 -1.614 -7.07 -2.415 c -2.46 -0.838 -4.924 -1.666 -7.386 -2.5 c -2.148 -0.729 -4.333 -1.373 -6.439 -2.211 c -2.185 -0.865 -4.468 -1.124 -6.749 -1.444 c -9.143 -1.29 -18.288 -2.563 -27.432 -3.847 c -1.186 -0.166 -1.187 -0.177 -1.477 -1.382 c -4.035 -16.785 -8.07 -33.569 -12.108 -50.355 c -1.482 -6.164 -2.985 -12.324 -4.428 -18.5 c -0.215 -0.922 -0.707 -1.342 -1.541 -1.624 c -2.846 -0.956 -5.674 -1.966 -8.51 -2.948 c -2.561 -0.886 -5.128 -1.754 -7.688 -2.644 c -2.557 -0.891 -5.11 -1.804 -7.667 -2.697 c -2.626 -0.918 -5.255 -1.829 -7.888 -2.733 C 534.531 71.785 533.949 71.585 533.271 71.171 z M 652.144 9.946 c -0.304 0 -0.343 0.263 -0.455 0.434 c -4.783 7.246 -9.561 14.499 -14.338 21.748 c -4.982 7.557 -9.963 15.109 -14.945 22.665 c -4.739 7.187 -9.476 14.377 -14.215 21.567 c -5.223 7.922 -10.452 15.841 -15.67 23.766 c -0.212 0.322 -0.7 0.633 -0.475 1.032 c 0.219 0.386 0.745 0.165 1.13 0.144 c 4.387 -0.248 8.778 -0.51 13.169 -0.775 c 12.95 -0.779 25.901 -1.557 38.853 -2.339 c 3.183 -0.192 6.365 -0.389 9.549 -0.592 c 1.116 -0.075 1.112 -0.087 1.08 -1.247 c -0.009 -0.22 -0.017 -0.438 -0.024 -0.661 c -0.385 -9.264 -0.773 -18.53 -1.155 -27.795 c -0.469 -11.389 -0.933 -22.778 -1.394 -34.169 c -0.307 -7.582 -0.609 -15.162 -0.922 -22.743 C 652.319 10.633 652.426 10.248 652.144 9.946 z M 740.913 215.828 c 0.089 -0.054 0.18 -0.104 0.268 -0.158 c -0.21 -0.499 -0.427 -0.995 -0.629 -1.495 c -2.184 -5.324 -4.368 -10.648 -6.54 -15.974 c -1.97 -4.819 -3.93 -9.64 -5.887 -14.463 c -2.991 -7.369 -5.977 -14.741 -8.964 -22.11 c -1.379 -3.397 -2.769 -6.788 -4.132 -10.191 c -0.239 -0.593 -0.606 -0.923 -1.205 -1.156 c -2.216 -0.868 -4.389 -1.847 -6.594 -2.747 c -3.63 -1.478 -7.241 -3.002 -10.87 -4.487 c -4.746 -1.942 -9.466 -3.951 -14.197 -5.934 c -2.432 -1.02 -4.905 -1.946 -7.295 -3.065 c -0.653 -0.303 -1.312 -0.339 -2.031 -0.167 c -8.017 1.939 -16.038 3.852 -24.057 5.781 c -0.371 0.089 -0.942 0.021 -1.021 0.471 c -0.071 0.418 0.461 0.601 0.761 0.847 c 8.136 6.606 16.27 13.211 24.41 19.809 c 13.519 10.957 27.048 21.906 40.573 32.86 c 7.713 6.25 15.424 12.504 23.141 18.753 C 738.06 213.551 739.487 214.685 740.913 215.828 z M 763.027 96.696 c -0.36 -0.118 -0.565 -0.004 -0.773 0.047 c -11.652 2.786 -23.306 5.572 -34.957 8.363 c -14.786 3.54 -29.573 7.085 -44.36 10.628 c -3.314 0.794 -6.627 1.585 -9.938 2.388 c -1.062 0.255 -1.086 0.307 -0.918 1.318 c 0.671 4.047 1.365 8.093 2.003 12.148 c 0.131 0.819 0.48 1.274 1.243 1.612 c 2.11 0.939 4.272 1.746 6.396 2.647 c 3.336 1.417 6.694 2.788 10.049 4.159 c 4.915 2.009 9.787 4.123 14.7 6.139 c 2.271 0.933 4.534 1.881 6.791 2.844 c 1.621 0.692 1.638 0.654 2.81 -0.619 c 0.148 -0.161 0.296 -0.325 0.444 -0.486 c 8.832 -9.694 17.665 -19.39 26.499 -29.084 c 6.343 -6.958 12.691 -13.912 19.034 -20.867 C 762.388 97.562 762.769 97.217 763.027 96.696 z M 535.974 71.024 c 0.304 0.368 0.678 0.445 1.013 0.564 c 1.688 0.606 3.384 1.188 5.079 1.777 c 2.596 0.899 5.195 1.784 7.788 2.69 c 2.593 0.905 5.175 1.839 7.768 2.743 c 3.321 1.155 6.639 2.312 9.972 3.424 c 0.968 0.326 1.469 0.877 1.71 1.897 c 2.188 9.237 4.424 18.462 6.646 27.694 c 3.279 13.65 6.561 27.3 9.842 40.949 c 0.255 1.064 0.257 1.069 1.352 1.225 c 9.58 1.343 19.16 2.686 28.74 4.026 c 0.29 0.041 0.583 0.077 0.873 0.096 c 0.291 0.024 0.41 -0.144 0.336 -0.408 c -0.059 -0.209 -0.17 -0.406 -0.264 -0.604 c -3.031 -6.268 -6.035 -12.551 -9.117 -18.796 c -0.735 -1.494 -1.154 -3.181 -2.414 -4.394 c -0.044 -0.042 -0.063 -0.134 -0.058 -0.201 c 0.058 -0.827 -0.44 -1.46 -0.769 -2.139 c -2.988 -6.21 -5.953 -12.433 -9.013 -18.605 c -1.769 -3.568 -3.194 -7.312 -5.389 -10.662 c -0.075 -0.114 -0.083 -0.281 -0.097 -0.422 c -0.05 -0.446 -0.254 -0.84 -0.443 -1.235 c -2.984 -6.171 -5.974 -12.338 -8.958 -18.509 c -3.704 -7.654 -7.41 -15.307 -11.108 -22.964 c -0.667 -1.376 -0.658 -1.395 -2.121 -0.809 c -5.138 2.061 -10.267 4.138 -15.405 6.196 c -4.935 1.977 -9.874 3.936 -14.81 5.907 C 536.755 70.612 536.351 70.691 535.974 71.024 z M 736.873 213.874 c -0.185 -0.163 -0.369 -0.335 -0.56 -0.491 c -8.421 -6.83 -16.842 -13.661 -25.268 -20.486 c -12.009 -9.733 -24.025 -19.458 -36.037 -29.189 c -9.28 -7.515 -18.56 -15.032 -27.84 -22.546 c -0.965 -0.782 -0.977 -0.782 -1.985 -0.099 c -2.334 1.583 -4.666 3.173 -6.998 4.761 c -5.847 3.98 -11.694 7.96 -17.533 11.948 c -0.346 0.234 -0.796 0.388 -0.95 0.891 c 0.391 0.333 0.85 0.463 1.298 0.614 c 1.18 0.398 2.357 0.794 3.535 1.195 c 2.321 0.79 4.641 1.585 6.964 2.374 c 2.461 0.836 4.925 1.662 7.385 2.497 c 2.357 0.8 4.709 1.616 7.066 2.417 c 2.392 0.811 4.79 1.601 7.181 2.415 c 2.392 0.815 4.748 1.752 7.173 2.444 c 3.485 0.997 6.656 2.632 9.779 4.404 c 2.133 1.211 4.279 2.396 6.424 3.586 c 1.954 1.082 3.913 2.151 5.866 3.233 c 2.244 1.242 4.48 2.492 6.72 3.733 c 1.89 1.05 3.782 2.089 5.67 3.139 c 2.209 1.224 4.412 2.458 6.62 3.685 c 1.985 1.101 3.978 2.189 5.962 3.292 c 2.112 1.173 4.217 2.359 6.33 3.526 c 1.984 1.105 3.978 2.188 5.962 3.288 c 2.213 1.223 4.417 2.453 6.623 3.685 c 2.078 1.159 4.13 2.364 6.231 3.479 C 733.929 212.432 735.292 213.347 736.873 213.874 z M 607.561 133.336 c 0.263 0.076 0.366 0.117 0.472 0.131 c 12.384 1.888 24.769 3.77 37.154 5.657 c 0.664 0.103 1.302 0.063 1.956 -0.095 c 7.696 -1.848 15.395 -3.688 23.094 -5.53 c 0.641 -0.153 1.286 -0.294 1.927 -0.456 c 1.028 -0.256 1.075 -0.331 0.932 -1.342 c -0.009 -0.072 -0.022 -0.144 -0.032 -0.218 c -0.684 -4.121 -1.373 -8.24 -2.045 -12.366 c -0.103 -0.633 -0.34 -1.176 -0.724 -1.69 c -4.479 -5.984 -8.948 -11.977 -13.42 -17.968 c -0.568 -0.756 -0.58 -0.77 -1.387 -0.206 c -1.681 1.181 -3.343 2.381 -5.018 3.568 c -13.881 9.823 -27.76 19.644 -41.636 29.468 C 608.425 132.581 607.977 132.837 607.561 133.336 z M 654.079 98.813 c -0.957 -0.213 -61.537 3.446 -62.422 3.763 c -0.049 0.28 0.134 0.486 0.243 0.71 c 4.24 8.774 8.48 17.546 12.723 26.319 c 0.415 0.857 0.815 1.722 1.244 2.572 c 0.305 0.603 0.439 0.63 1.014 0.281 c 0.157 -0.095 0.298 -0.213 0.447 -0.319 c 3.645 -2.583 7.29 -5.171 10.939 -7.753 c 11.691 -8.276 23.385 -16.55 35.072 -24.827 C 653.619 99.361 653.996 99.229 654.079 98.813 z M 653.644 14.046 c -0.048 0.009 -0.096 0.017 -0.143 0.023 c 0.004 0.393 -0.003 0.784 0.013 1.175 c 0.37 8.897 0.743 17.794 1.11 26.692 c 0.468 11.386 0.933 22.774 1.395 34.161 c 0.279 6.882 0.562 13.766 0.819 20.651 c 0.029 0.77 0.246 1.405 0.729 2.009 c 0.846 1.057 1.632 2.164 2.444 3.251 c 3.327 4.465 6.653 8.934 9.987 13.394 c 0.207 0.274 0.366 0.62 0.763 0.771 c 0.203 -0.469 0.148 -0.914 0.163 -1.341 c 0.271 -8.168 0.532 -16.334 0.805 -24.502 c 0.025 -0.774 -0.057 -1.531 -0.24 -2.287 c -1.988 -8.226 -3.978 -16.454 -5.956 -24.686 c -3.846 -15.997 -7.684 -31.997 -11.526 -47.995 C 653.899 14.924 653.767 14.486 653.644 14.046 z M 644.524 140.126 c -0.204 -0.29 -0.535 -0.201 -0.804 -0.242 c -11.843 -1.804 -23.685 -3.6 -35.526 -5.396 c -0.319 -0.047 -0.716 -0.229 -0.935 0.04 c -0.275 0.338 0.069 0.691 0.222 1.001 c 3.491 7.223 6.991 14.445 10.491 21.664 c 0.43 0.893 0.439 0.9 1.235 0.359 c 8.238 -5.611 16.477 -11.22 24.71 -16.835 C 644.147 140.561 644.464 140.476 644.524 140.126 z" stroke-linecap="round" />
</g>
</svg>