<?xml version="1.0" encoding="UTF-8" standalone="no" ?>
<!DOCTYPE svg PUBLIC "-//W3C//DTD SVG 1.1//EN" "http://www.w3.org/Graphics/SVG/1.1/DTD/svg11.dtd">
<svg xmlns="http://www.w3.org/2000/svg" xmlns:xlink="http://www.w3.org/1999/xlink" version="1.1" width="640" height="480" viewBox="0 0 640 480" xml:space="preserve">
<desc>Created with Fabric.js 3.6.6</desc>
<defs>
</defs>
<g transform="matrix(4.73 0 0 4.73 318.34 236.05)"  >
<g style=""   >
		<g transform="matrix(0.51 0.1 -0.1 0.51 -8.51 -17.78)"  >
<path style="stroke: #1b1b1f; stroke-width: 1; stroke-dasharray: none; stroke-linecap: butt; stroke-dashoffset: 0; stroke-linejoin: miter; stroke-miterlimit: 10; fill: #3961A6; fill-rule: evenodd; opacity: 1;"  transform=" translate(-131.86, -457)" d="M 120.217 401.57 c 0.392 0.162 0.457 0.566 0.62 0.886 c 3.525 6.942 7.04 13.891 10.561 20.836 c 5.291 10.435 10.583 20.868 15.879 31.299 c 4.308 8.486 8.624 16.969 12.936 25.453 c 0.103 0.201 0.203 0.402 0.304 0.604 c 0.526 1.068 0.533 1.08 -0.478 1.623 c -2.883 1.548 -5.769 3.09 -8.659 4.627 c -11.755 6.255 -23.511 12.507 -35.268 18.759 c -3.985 2.119 -7.971 4.237 -11.964 6.342 c -0.349 0.184 -0.745 0.614 -1.115 0.347 c -0.38 -0.276 -0.056 -0.774 0.005 -1.164 c 1.489 -9.624 2.99 -19.246 4.487 -28.869 c 1.357 -8.732 2.71 -17.465 4.067 -26.195 c 1.426 -9.178 2.855 -18.353 4.281 -27.531 c 1.369 -8.806 2.733 -17.612 4.104 -26.418 C 120.01 401.962 119.935 401.699 120.217 401.57 z" stroke-linecap="round" />
</g>
		<g transform="matrix(0.51 0.1 -0.1 0.51 34.46 30.33)"  >
<path style="stroke: #1b1b1f; stroke-width: 1; stroke-dasharray: none; stroke-linecap: butt; stroke-dashoffset: 0; stroke-linejoin: miter; stroke-miterlimit: 10; fill: #3961A6; fill-rule: evenodd; opacity: 1;"  transform=" translate(-231.37, -531.05)" d="M 290.906 555.87 c -1.816 -0.457 -3.633 -0.908 -5.446 -1.376 c -9.868 -2.541 -19.734 -5.089 -29.601 -7.631 c -17.296 -4.455 -34.594 -8.904 -51.888 -13.364 c -10.414 -2.684 -20.824 -5.38 -31.234 -8.075 c -0.387 -0.101 -0.961 -0.046 -1.072 -0.466 c -0.12 -0.455 0.443 -0.634 0.751 -0.875 c 6.661 -5.222 13.333 -10.43 19.989 -15.659 c 0.597 -0.469 1.228 -0.715 1.966 -0.709 c 2.708 0.022 5.412 -0.168 8.118 -0.254 c 5.261 -0.168 10.524 -0.305 15.783 -0.518 c 4.02 -0.163 8.041 -0.281 12.06 -0.448 c 2.442 -0.102 4.888 -0.114 7.328 -0.251 c 0.657 -0.037 1.142 0.113 1.617 0.566 c 2.722 2.595 5.468 5.166 8.203 7.749 c 5.935 5.605 11.866 11.212 17.802 16.814 c 3.884 3.666 7.77 7.33 11.662 10.988 c 4.303 4.045 8.613 8.082 12.921 12.12 c 0.405 0.379 0.817 0.751 1.227 1.126 C 291.03 555.695 290.967 555.783 290.906 555.87 z" stroke-linecap="round" />
</g>
		<g transform="matrix(0.51 0.1 -0.1 0.51 36.43 -1.14)"  >
<path style="stroke: #1b1b1f; stroke-width: 1; stroke-dasharray: none; stroke-linecap: butt; stroke-dashoffset: 0; stroke-linejoin: miter; stroke-miterlimit: 10; fill: #3961A6; fill-rule: evenodd; opacity: 1;"  transform=" translate(-222.93, -470.98)" d="M 260.726 435.236 c -0.02 0.599 -0.229 1.082 -0.387 1.573 c -2.952 9.2 -5.912 18.397 -8.864 27.599 c -4.111 12.816 -8.218 25.635 -12.327 38.452 c -0.069 0.214 -0.139 0.429 -0.209 0.642 c -0.55 1.687 -0.549 1.73 -2.359 1.777 c -2.517 0.064 -5.033 0.143 -7.55 0.242 c -5.446 0.215 -10.895 0.32 -16.34 0.542 c -3.717 0.15 -7.435 0.305 -11.153 0.404 c -2.367 0.064 -4.73 0.232 -7.1 0.258 c -0.855 0.011 -1.378 -0.267 -1.848 -0.976 c -2.325 -3.513 -4.698 -6.992 -7.053 -10.484 c -0.588 -0.872 -0.587 -0.93 0.294 -1.622 c 2.748 -2.16 5.505 -4.313 8.259 -6.468 c 12.291 -9.615 24.58 -19.231 36.872 -28.846 c 9.686 -7.575 19.373 -15.147 29.062 -22.719 C 260.197 435.478 260.337 435.284 260.726 435.236 z" stroke-linecap="round" />
</g>
		<g transform="matrix(0.51 0.1 -0.1 0.51 -34.54 11.89)"  >
<path style="stroke: #1b1b1f; stroke-width: 1; stroke-dasharray: none; stroke-linecap: butt; stroke-dashoffset: 0; stroke-linejoin: miter; stroke-miterlimit: 10; fill: #3961A6; fill-rule: evenodd; opacity: 1;"  transform=" translate(-94.24, -523)" d="M 37.841 508.14 c 0.209 -0.471 0.554 -0.718 0.836 -1.014 c 3.765 -3.946 7.541 -7.883 11.302 -11.833 c 3.918 -4.112 7.82 -8.239 11.736 -12.354 c 1.116 -1.173 1.117 -1.151 2.326 -0.15 c 6.719 5.568 13.443 11.132 20.166 16.696 c 5.419 4.486 10.839 8.969 16.256 13.456 c 0.346 0.287 0.706 0.565 0.941 0.964 c 0.075 0.127 0.153 0.277 0.27 0.351 c 3.478 2.194 6.406 5.079 9.579 7.654 c 5.491 4.456 10.911 8.999 16.351 13.52 c 0.596 0.495 1.33 0.874 1.629 1.669 c 0.024 0.064 0.081 0.143 0.14 0.165 c 1.694 0.593 2.803 1.99 4.127 3.069 c 5.541 4.515 11.026 9.098 16.53 13.655 c 0.173 0.144 0.359 0.281 0.503 0.451 c 0.182 0.215 0.142 0.42 -0.139 0.524 c -0.281 0.106 -0.568 0.197 -0.856 0.283 c -9.514 2.836 -19.029 5.67 -28.544 8.502 c -1.087 0.323 -1.092 0.318 -1.784 -0.564 c -8.886 -11.341 -17.77 -22.684 -26.657 -34.024 c -6.009 -7.669 -12.034 -15.326 -18.017 -23.016 c -0.66 -0.848 -1.362 -1.15 -2.404 -1.04 c -3.586 0.383 -7.178 0.719 -10.769 1.057 c -2.806 0.264 -5.615 0.494 -8.421 0.755 c -2.806 0.261 -5.61 0.542 -8.415 0.811 c -1.833 0.175 -3.666 0.354 -5.501 0.51 C 38.662 508.266 38.281 508.353 37.841 508.14 z" stroke-linecap="round" />
</g>
		<g transform="matrix(0.51 0.1 -0.1 0.51 27.54 34.15)"  >
<path style="stroke: #1b1b1f; stroke-width: 1; stroke-dasharray: none; stroke-linecap: butt; stroke-dashoffset: 0; stroke-linejoin: miter; stroke-miterlimit: 10; fill: #3961A6; fill-rule: evenodd; opacity: 1;"  transform=" translate(-219.84, -540.91)" d="M 286.303 555.771 c -1.702 0.182 -3.363 -0.092 -5.031 -0.19 c -2.437 -0.143 -4.867 -0.392 -7.302 -0.588 c -2.583 -0.209 -5.167 -0.416 -7.751 -0.615 c -2.323 -0.18 -4.646 -0.341 -6.969 -0.523 c -2.471 -0.191 -4.942 -0.4 -7.414 -0.594 c -2.323 -0.182 -4.646 -0.349 -6.969 -0.529 c -2.584 -0.201 -5.167 -0.413 -7.751 -0.615 c -2.21 -0.173 -4.42 -0.337 -6.63 -0.509 c -2.622 -0.204 -5.243 -0.418 -7.865 -0.62 c -2.285 -0.177 -4.571 -0.338 -6.857 -0.516 c -2.509 -0.195 -5.018 -0.386 -7.525 -0.605 c -3.672 -0.322 -7.329 -0.495 -11.008 0.061 c -2.559 0.388 -5.157 0.518 -7.736 0.778 c -2.579 0.261 -5.155 0.545 -7.733 0.809 c -2.542 0.259 -5.085 0.501 -7.626 0.759 c -2.653 0.27 -5.306 0.551 -7.959 0.82 c -2.504 0.255 -5.009 0.501 -7.513 0.753 c -1.27 0.129 -2.54 0.264 -3.811 0.395 c -0.482 0.05 -0.965 0.125 -1.473 -0.02 c -0.069 -0.535 0.285 -0.871 0.506 -1.236 c 3.749 -6.215 7.511 -12.423 11.27 -18.633 c 1.5 -2.477 2.996 -4.956 4.502 -7.43 c 0.65 -1.068 0.66 -1.072 1.894 -0.755 c 11.869 3.055 23.737 6.113 35.604 9.169 c 15.364 3.957 30.728 7.91 46.09 11.87 c 10.775 2.776 21.55 5.56 32.323 8.344 C 285.816 555.615 286.059 555.698 286.303 555.771 z" stroke-linecap="round" />
</g>
		<g transform="matrix(0.51 0.1 -0.1 0.51 1.23 11.95)"  >
<path style="stroke: #1b1b1f; stroke-width: 1; stroke-dasharray: none; stroke-linecap: butt; stroke-dashoffset: 0; stroke-linejoin: miter; stroke-miterlimit: 10; fill: #3961A6; fill-rule: evenodd; opacity: 1;"  transform=" translate(-161.67, -509.28)" d="M 131.244 535.761 c 0.175 -0.641 0.483 -1.071 0.742 -1.518 c 8.761 -15.091 17.526 -30.178 26.291 -45.268 c 1.058 -1.822 2.097 -3.652 3.162 -5.471 c 0.511 -0.872 0.529 -0.865 1.382 -0.399 c 6.73 3.684 13.457 7.372 20.191 11.046 c 0.579 0.316 1.031 0.723 1.398 1.27 c 2.386 3.563 4.788 7.114 7.184 10.669 c 0.042 0.063 0.084 0.126 0.125 0.188 c 0.563 0.884 0.551 0.975 -0.3 1.653 c -0.529 0.423 -1.071 0.83 -1.604 1.247 c -6.401 5.002 -12.802 10.003 -19.196 15.013 c -0.543 0.426 -1.122 0.735 -1.785 0.924 c -12.366 3.521 -24.73 7.048 -37.095 10.57 C 131.634 535.715 131.521 535.72 131.244 535.761 z" stroke-linecap="round" />
</g>
		<g transform="matrix(0.51 0.1 -0.1 0.51 -14.6 9.03)"  >
<path style="stroke: #1b1b1f; stroke-width: 1; stroke-dasharray: none; stroke-linecap: butt; stroke-dashoffset: 0; stroke-linejoin: miter; stroke-miterlimit: 10; fill: #3961A6; fill-rule: evenodd; opacity: 1;"  transform=" translate(-131.62, -509.7)" d="M 159.936 483.693 c 0.099 0.424 -0.196 0.707 -0.374 1.012 c -7.378 12.715 -14.763 25.425 -22.145 38.137 c -2.304 3.967 -4.601 7.937 -6.901 11.904 c -0.094 0.162 -0.176 0.333 -0.282 0.488 c -0.389 0.57 -0.525 0.602 -1.066 0.169 c -0.763 -0.61 -1.505 -1.247 -2.258 -1.87 c -7.702 -6.379 -15.404 -12.757 -23.103 -19.138 c -0.198 -0.164 -0.456 -0.277 -0.532 -0.56 C 103.967 513.162 158.953 483.902 159.936 483.693 z" stroke-linecap="round" />
</g>
		<g transform="matrix(0.51 0.1 -0.1 0.51 3.17 -19.75)"  >
<path style="stroke: #1b1b1f; stroke-width: 1; stroke-dasharray: none; stroke-linecap: butt; stroke-dashoffset: 0; stroke-linejoin: miter; stroke-miterlimit: 10; fill: #3961A6; fill-rule: evenodd; opacity: 1;"  transform=" translate(-153.08, -448.77)" d="M 123.367 404.758 c 0.301 0.358 0.612 0.709 0.9 1.076 c 10.413 13.293 20.822 26.589 31.236 39.881 c 5.358 6.839 10.724 13.671 16.09 20.501 c 0.493 0.627 0.891 1.298 1.198 2.032 c 3.231 7.739 6.472 15.474 9.703 23.212 c 0.169 0.405 0.409 0.797 0.419 1.322 c -0.434 0.028 -0.73 -0.226 -1.04 -0.395 c -5.015 -2.741 -10.025 -5.492 -15.038 -8.24 c -1.22 -0.669 -2.427 -1.366 -3.667 -1.992 c -0.708 -0.358 -1.18 -0.858 -1.537 -1.566 c -3.178 -6.315 -6.378 -12.62 -9.576 -18.925 c -5.29 -10.432 -10.581 -20.862 -15.876 -31.292 c -4.137 -8.147 -8.282 -16.293 -12.422 -24.44 c -0.182 -0.358 -0.343 -0.727 -0.515 -1.091 C 123.285 404.814 123.326 404.785 123.367 404.758 z" stroke-linecap="round" />
</g>
		<g transform="matrix(0.51 0.1 -0.1 0.51 -7.92 26.48)"  >
<path style="stroke: #1b1b1f; stroke-width: 1; stroke-dasharray: none; stroke-linecap: butt; stroke-dashoffset: 0; stroke-linejoin: miter; stroke-miterlimit: 10; fill: #3961A6; fill-rule: evenodd; opacity: 1;"  transform=" translate(-150.06, -540.16)" d="M 168.642 526.331 c 0.092 0.352 -0.166 0.566 -0.314 0.81 c -5.29 8.755 -10.585 17.506 -15.882 26.255 c -0.511 0.844 -0.523 0.841 -1.307 0.192 c -6.347 -5.246 -12.694 -10.492 -19.035 -15.746 c -0.273 -0.226 -0.746 -0.406 -0.633 -0.839 c 0.089 -0.344 0.537 -0.344 0.856 -0.435 c 11.819 -3.375 23.639 -6.753 35.462 -10.12 C 168.057 526.371 168.328 526.148 168.642 526.331 z" stroke-linecap="round" />
</g>
</g>
</g>
</svg>